<svg width="217" height="217" viewBox="0 0 217 217" fill="none" xmlns="http://www.w3.org/2000/svg">
<g clip-path="url(#clip0_5_18)">
<path d="M217 108.5C217 168.474 168.474 217 108.5 217C48.526 217 0 168.474 0 108.5C0 48.526 48.526 0 108.5 0C168.474 0 217 48.526 217 108.5Z" fill="#90DFAA"/>
<path d="M217 108.5C217 124.049 213.754 138.743 207.944 152.071C191.199 190.345 152.925 217 108.5 217C64.0748 217 25.8008 190.345 9.05591 152.071C3.24646 138.743 0 124.049 0 108.5C0 48.526 48.526 0 108.5 0C168.474 0 217 48.526 217 108.5Z" fill="#324A5E"/>
<path d="M130.713 83.5536V113.455C138.06 117.043 144.04 123.195 147.458 130.713C149.508 126.099 150.704 121.144 150.704 115.676C150.875 101.665 142.673 89.363 130.713 83.5536Z" fill="#FF7058"/>
<path d="M86.2874 83.5536V113.455C78.9402 117.043 72.9599 123.195 69.5425 130.713C67.4921 126.099 66.2961 121.144 66.2961 115.676C66.1252 101.665 74.3268 89.363 86.2874 83.5536Z" fill="#FF7058"/>
<path d="M128.662 123.536C143.528 88.8504 136.693 47.1591 108.5 18.9662C80.3071 47.1591 73.4724 88.8504 88.3378 123.536H128.662Z" fill="#FFD05B"/>
<path d="M109.525 106.279C109.525 119.777 108.5 130.713 108.5 130.713C108.5 130.713 107.475 119.777 107.475 106.279C107.475 92.7803 108.5 81.8448 108.5 81.8448C108.5 81.8448 109.525 92.7803 109.525 106.279Z" fill="#FF7058"/>
<path d="M108.5 64.0748C113.407 64.0748 117.385 60.0968 117.385 55.1897C117.385 50.2827 113.407 46.3047 108.5 46.3047C103.593 46.3047 99.615 50.2827 99.615 55.1897C99.615 60.0968 103.593 64.0748 108.5 64.0748Z" fill="white"/>
<path d="M194.275 147.287C188.807 147.287 183.852 149.337 179.922 152.583C177.53 151.558 174.967 151.046 172.233 151.046C161.639 151.046 152.925 159.76 152.925 170.524C152.925 173.087 153.438 175.65 154.292 177.872C151.046 181.289 148.995 185.902 148.995 191.028C146.261 189.491 143.015 188.636 139.769 188.636C139.427 188.636 139.256 188.636 138.914 188.636C137.376 183.681 133.959 179.409 129.346 177.017C121.657 167.278 118.41 145.749 117.556 139.598H99.2732C98.4189 145.749 95.1724 167.278 87.4835 177.017C83.0409 179.409 79.4528 183.51 77.915 188.636C77.5732 188.636 77.4024 188.636 77.0606 188.636C73.6433 188.636 70.5677 189.491 67.8339 191.028C67.8339 185.902 65.7835 181.289 62.537 177.872C63.3913 175.65 63.9039 173.087 63.9039 170.524C63.9039 159.76 55.1898 151.046 44.4252 151.046C41.6913 151.046 39.1283 151.558 36.7362 152.583C32.9772 149.337 27.8512 147.287 22.3835 147.287C17.2575 147.287 12.4732 148.995 8.71417 152.071C25.4591 190.345 63.7331 217 108.158 217C152.583 217 190.857 190.345 207.602 152.071C204.185 148.995 199.401 147.287 194.275 147.287Z" fill="#E6E9EE"/>
<path d="M173.258 55.7024L178.897 55.1898L173.258 54.6772L175.138 52.2851L172.746 54.3354L172.233 48.526L171.72 54.3354L169.328 52.2851L171.379 54.6772L165.569 55.1898L171.379 55.7024L169.328 58.0945L171.72 56.215L172.233 61.8536L172.746 56.215L175.138 58.0945L173.258 55.7024Z" fill="#FF7058"/>
<path d="M54.5063 72.2764L64.7583 71.2512L54.5063 70.3969L57.9236 66.2961L53.8228 69.7134L52.7976 59.4614L51.9433 69.7134L47.8425 66.2961L51.2598 70.3969L41.0079 71.2512L51.2598 72.2764L47.8425 76.3772L51.9433 72.9599L52.7976 83.041L53.8228 72.9599L57.9236 76.3772L54.5063 72.2764Z" fill="#4CDBC4"/>
<path d="M175.992 112.943L184.023 112.259L175.992 111.405L178.726 108.158L175.48 110.892L174.796 102.861L173.942 110.892L170.866 108.158L173.429 111.405L165.398 112.259L173.429 112.943L170.866 116.189L173.942 113.455L174.796 121.486L175.48 113.455L178.726 116.189L175.992 112.943Z" fill="#84DBFF"/>
</g>
<defs>
<clipPath id="clip0_5_18">
<rect width="217" height="217" fill="white"/>
</clipPath>
</defs>
</svg>
