<svg width="205" height="47" viewBox="0 0 205 47" fill="none" xmlns="http://www.w3.org/2000/svg">
<path d="M5.03125 21.5938V5.25H17.0312C19.2812 5.25 21.2083 6.05208 22.8125 7.65625C24.3958 9.26042 25.1875 11.1875 25.1875 13.4375C25.1875 15.6875 24.3958 17.6146 22.8125 19.2188C21.2083 20.8021 19.2812 21.5938 17.0312 21.5938H5.03125ZM20.2188 25.3125C22.8646 24.6042 25.0312 23.1667 26.7188 21C28.4479 18.7708 29.3125 16.25 29.3125 13.4375C29.3125 10.0417 28.1146 7.14583 25.7188 4.75C23.3229 2.33333 20.4271 1.125 17.0312 1.125H0.90625V45.9688H5.03125V25.7188H15.7812L26.3125 46H30.9375L20.2188 25.3125ZM33.75 1.125V46H56.6562V41.875H37.875V25.5625H52.7188V21.4375H37.875V5.25H56.6562V1.125H33.75ZM86.0625 1.125L57.6875 46H62.5625L69.6562 34.7812H87.4688V46H91.5625V1.125H86.0625ZM87.4688 6.625V30.6562H72.25L87.4688 6.625ZM118.031 42.3125C112.865 42.3125 108.448 40.4792 104.781 36.8125C101.115 33.1458 99.2812 28.7292 99.2812 23.5625C99.2812 18.3958 101.115 13.9792 104.781 10.3125C108.448 6.64583 112.865 4.8125 118.031 4.8125C121.719 4.8125 125.115 5.82292 128.219 7.84375V3.09375C125.01 1.48958 121.615 0.6875 118.031 0.6875C111.719 0.6875 106.333 2.92708 101.875 7.40625C97.3958 11.8646 95.1562 17.25 95.1562 23.5625C95.1562 29.875 97.3958 35.2604 101.875 39.7188C106.333 44.1979 111.719 46.4375 118.031 46.4375C121.615 46.4375 125.01 45.6354 128.219 44.0312V39.2812C125.115 41.3021 121.719 42.3125 118.031 42.3125ZM129.625 1.125V5.25H141.406V46H145.531V5.25H157.281V1.125H129.625ZM163.531 40.4688C162.698 40.4688 161.99 40.7604 161.406 41.3438C160.823 41.9271 160.531 42.625 160.531 43.4375C160.531 44.2708 160.823 44.9792 161.406 45.5625C161.99 46.1458 162.698 46.4375 163.531 46.4375C164.344 46.4375 165.042 46.1458 165.625 45.5625C166.208 44.9792 166.5 44.2708 166.5 43.4375C166.5 42.625 166.208 41.9271 165.625 41.3438C165.042 40.7604 164.344 40.4688 163.531 40.4688ZM170.5 46H174.656V0.90625H170.5V46ZM176.75 1.125V5.25H188.531V46H192.656V5.25H204.406V1.125H176.75Z" fill="black"/>
</svg>
